<mxfile host="app.diagrams.net" modified="2023-06-03T14:23:16.476Z" agent="Mozilla/5.0 (Windows NT 10.0; Win64; x64) AppleWebKit/537.36 (KHTML, like Gecko) Chrome/114.0.0.0 Safari/537.36" etag="JGn5QyhxkAhupXAUU87H" version="21.3.7" type="device">
  <diagram name="Página-1" id="A7f7yXmqmdOeKfHnwf92">
    <mxGraphModel dx="2179" dy="3083" grid="1" gridSize="10" guides="1" tooltips="1" connect="1" arrows="1" fold="1" page="1" pageScale="1" pageWidth="827" pageHeight="1169" math="0" shadow="0">
      <root>
        <mxCell id="0" />
        <mxCell id="1" parent="0" />
        <mxCell id="GJwqGrtuuLVszDylOuH6-1" value="&lt;font style=&quot;font-size: 14px;&quot; data-font-src=&quot;https://fonts.googleapis.com/css?family=Arial&quot; face=&quot;Arial&quot;&gt;uC Sistema de controle de vestibular&lt;/font&gt;" style="shape=umlFrame;whiteSpace=wrap;html=1;pointerEvents=0;width=240;height=40;fillColor=#CCE5FF;" vertex="1" parent="1">
          <mxGeometry x="-790" y="-2310" width="1370" height="870" as="geometry" />
        </mxCell>
        <mxCell id="GJwqGrtuuLVszDylOuH6-2" value="Sistema de controle de vestibular" style="swimlane;fontSize=19;" vertex="1" parent="1">
          <mxGeometry x="-590" y="-2250" width="970" height="770" as="geometry" />
        </mxCell>
        <mxCell id="GJwqGrtuuLVszDylOuH6-26" style="rounded=0;orthogonalLoop=1;jettySize=auto;html=1;dashed=1;" edge="1" parent="GJwqGrtuuLVszDylOuH6-2" source="GJwqGrtuuLVszDylOuH6-5" target="GJwqGrtuuLVszDylOuH6-14">
          <mxGeometry relative="1" as="geometry" />
        </mxCell>
        <mxCell id="GJwqGrtuuLVszDylOuH6-27" style="rounded=0;orthogonalLoop=1;jettySize=auto;html=1;dashed=1;" edge="1" parent="GJwqGrtuuLVszDylOuH6-2" source="GJwqGrtuuLVszDylOuH6-5" target="GJwqGrtuuLVszDylOuH6-16">
          <mxGeometry relative="1" as="geometry" />
        </mxCell>
        <mxCell id="GJwqGrtuuLVszDylOuH6-5" value="&lt;b&gt;&lt;font face=&quot;Lucida Console&quot; style=&quot;font-size: 18px;&quot;&gt;Preencher dados pessoais&lt;/font&gt;&lt;/b&gt;" style="ellipse;whiteSpace=wrap;html=1;fillColor=#00FFFF;strokeColor=#000000;shadow=1;" vertex="1" parent="GJwqGrtuuLVszDylOuH6-2">
          <mxGeometry x="150" y="160" width="210" height="120" as="geometry" />
        </mxCell>
        <mxCell id="GJwqGrtuuLVszDylOuH6-32" style="rounded=0;orthogonalLoop=1;jettySize=auto;html=1;entryX=0.5;entryY=1;entryDx=0;entryDy=0;dashed=1;" edge="1" parent="GJwqGrtuuLVszDylOuH6-2" source="GJwqGrtuuLVszDylOuH6-8" target="GJwqGrtuuLVszDylOuH6-5">
          <mxGeometry relative="1" as="geometry" />
        </mxCell>
        <mxCell id="GJwqGrtuuLVszDylOuH6-8" value="&lt;b&gt;&lt;font face=&quot;Lucida Console&quot; style=&quot;font-size: 18px;&quot;&gt;Finalizar inscrição&lt;br&gt;&lt;/font&gt;&lt;/b&gt;" style="ellipse;whiteSpace=wrap;html=1;fillColor=#00FFFF;strokeColor=#000000;shadow=1;" vertex="1" parent="GJwqGrtuuLVszDylOuH6-2">
          <mxGeometry x="150" y="350" width="210" height="120" as="geometry" />
        </mxCell>
        <mxCell id="GJwqGrtuuLVszDylOuH6-33" style="rounded=0;orthogonalLoop=1;jettySize=auto;html=1;entryX=0.391;entryY=1.001;entryDx=0;entryDy=0;entryPerimeter=0;dashed=1;" edge="1" parent="GJwqGrtuuLVszDylOuH6-2" source="GJwqGrtuuLVszDylOuH6-9" target="GJwqGrtuuLVszDylOuH6-8">
          <mxGeometry relative="1" as="geometry" />
        </mxCell>
        <mxCell id="GJwqGrtuuLVszDylOuH6-9" value="&lt;b&gt;&lt;font face=&quot;Lucida Console&quot; style=&quot;font-size: 18px;&quot;&gt;Imprimir comprovante de inscrição&lt;/font&gt;&lt;/b&gt;" style="ellipse;whiteSpace=wrap;html=1;fillColor=#00FFFF;strokeColor=#000000;shadow=1;" vertex="1" parent="GJwqGrtuuLVszDylOuH6-2">
          <mxGeometry x="100" y="610" width="210" height="120" as="geometry" />
        </mxCell>
        <mxCell id="GJwqGrtuuLVszDylOuH6-22" style="rounded=0;orthogonalLoop=1;jettySize=auto;html=1;dashed=1;" edge="1" parent="GJwqGrtuuLVszDylOuH6-2" source="GJwqGrtuuLVszDylOuH6-5" target="GJwqGrtuuLVszDylOuH6-10">
          <mxGeometry relative="1" as="geometry" />
        </mxCell>
        <mxCell id="GJwqGrtuuLVszDylOuH6-36" style="edgeStyle=orthogonalEdgeStyle;rounded=0;orthogonalLoop=1;jettySize=auto;html=1;entryX=1;entryY=0;entryDx=0;entryDy=0;dashed=1;" edge="1" parent="GJwqGrtuuLVszDylOuH6-2" source="GJwqGrtuuLVszDylOuH6-10" target="GJwqGrtuuLVszDylOuH6-12">
          <mxGeometry relative="1" as="geometry" />
        </mxCell>
        <mxCell id="GJwqGrtuuLVszDylOuH6-10" value="&lt;b&gt;&lt;font face=&quot;Lucida Console&quot; style=&quot;font-size: 18px;&quot;&gt;Fornecer RG&lt;/font&gt;&lt;/b&gt;" style="ellipse;whiteSpace=wrap;html=1;fillColor=#00FFFF;strokeColor=#000000;shadow=1;" vertex="1" parent="GJwqGrtuuLVszDylOuH6-2">
          <mxGeometry x="380" y="80" width="190" height="80" as="geometry" />
        </mxCell>
        <mxCell id="GJwqGrtuuLVszDylOuH6-23" style="rounded=0;orthogonalLoop=1;jettySize=auto;html=1;dashed=1;" edge="1" parent="GJwqGrtuuLVszDylOuH6-2" source="GJwqGrtuuLVszDylOuH6-5" target="GJwqGrtuuLVszDylOuH6-11">
          <mxGeometry relative="1" as="geometry" />
        </mxCell>
        <mxCell id="GJwqGrtuuLVszDylOuH6-29" style="rounded=0;orthogonalLoop=1;jettySize=auto;html=1;entryX=0.054;entryY=0.276;entryDx=0;entryDy=0;entryPerimeter=0;dashed=1;" edge="1" parent="GJwqGrtuuLVszDylOuH6-2" source="GJwqGrtuuLVszDylOuH6-11" target="GJwqGrtuuLVszDylOuH6-12">
          <mxGeometry relative="1" as="geometry" />
        </mxCell>
        <mxCell id="GJwqGrtuuLVszDylOuH6-11" value="&lt;b&gt;&lt;font face=&quot;Lucida Console&quot; style=&quot;font-size: 18px;&quot;&gt;Fornecer CPF&lt;/font&gt;&lt;/b&gt;" style="ellipse;whiteSpace=wrap;html=1;fillColor=#00FFFF;strokeColor=#000000;shadow=1;" vertex="1" parent="GJwqGrtuuLVszDylOuH6-2">
          <mxGeometry x="460" y="210" width="190" height="80" as="geometry" />
        </mxCell>
        <mxCell id="GJwqGrtuuLVszDylOuH6-24" style="rounded=0;orthogonalLoop=1;jettySize=auto;html=1;exitX=1;exitY=1;exitDx=0;exitDy=0;dashed=1;" edge="1" parent="GJwqGrtuuLVszDylOuH6-2" source="GJwqGrtuuLVszDylOuH6-5" target="GJwqGrtuuLVszDylOuH6-15">
          <mxGeometry relative="1" as="geometry" />
        </mxCell>
        <mxCell id="GJwqGrtuuLVszDylOuH6-31" style="rounded=0;orthogonalLoop=1;jettySize=auto;html=1;entryX=0.037;entryY=0.825;entryDx=0;entryDy=0;entryPerimeter=0;dashed=1;" edge="1" parent="GJwqGrtuuLVszDylOuH6-2" source="GJwqGrtuuLVszDylOuH6-15" target="GJwqGrtuuLVszDylOuH6-12">
          <mxGeometry relative="1" as="geometry" />
        </mxCell>
        <mxCell id="GJwqGrtuuLVszDylOuH6-15" value="&lt;b&gt;&lt;font face=&quot;Lucida Console&quot; style=&quot;font-size: 18px;&quot;&gt;Fornecer telefone&lt;/font&gt;&lt;/b&gt;" style="ellipse;whiteSpace=wrap;html=1;fillColor=#00FFFF;strokeColor=#000000;shadow=1;" vertex="1" parent="GJwqGrtuuLVszDylOuH6-2">
          <mxGeometry x="460" y="320" width="210" height="80" as="geometry" />
        </mxCell>
        <mxCell id="GJwqGrtuuLVszDylOuH6-78" style="rounded=0;orthogonalLoop=1;jettySize=auto;html=1;entryX=0.313;entryY=0.979;entryDx=0;entryDy=0;entryPerimeter=0;dashed=1;" edge="1" parent="GJwqGrtuuLVszDylOuH6-2" source="GJwqGrtuuLVszDylOuH6-14" target="GJwqGrtuuLVszDylOuH6-12">
          <mxGeometry relative="1" as="geometry" />
        </mxCell>
        <mxCell id="GJwqGrtuuLVszDylOuH6-14" value="&lt;b&gt;&lt;font face=&quot;Lucida Console&quot; style=&quot;font-size: 18px;&quot;&gt;Fornecer data de nascimento&lt;/font&gt;&lt;/b&gt;" style="ellipse;whiteSpace=wrap;html=1;fillColor=#00FFFF;strokeColor=#000000;shadow=1;" vertex="1" parent="GJwqGrtuuLVszDylOuH6-2">
          <mxGeometry x="490" y="507" width="210" height="103" as="geometry" />
        </mxCell>
        <mxCell id="GJwqGrtuuLVszDylOuH6-28" style="rounded=0;orthogonalLoop=1;jettySize=auto;html=1;entryX=1;entryY=0.5;entryDx=0;entryDy=0;dashed=1;" edge="1" parent="GJwqGrtuuLVszDylOuH6-2" source="GJwqGrtuuLVszDylOuH6-13" target="GJwqGrtuuLVszDylOuH6-14">
          <mxGeometry relative="1" as="geometry" />
        </mxCell>
        <mxCell id="GJwqGrtuuLVszDylOuH6-13" value="&lt;b&gt;&lt;font face=&quot;Lucida Console&quot; style=&quot;font-size: 18px;&quot;&gt;Informar representante legal&lt;/font&gt;&lt;/b&gt;" style="ellipse;whiteSpace=wrap;html=1;fillColor=#00FFFF;strokeColor=#000000;shadow=1;" vertex="1" parent="GJwqGrtuuLVszDylOuH6-2">
          <mxGeometry x="760" y="390" width="200" height="80" as="geometry" />
        </mxCell>
        <mxCell id="GJwqGrtuuLVszDylOuH6-12" value="&lt;b&gt;&lt;font face=&quot;Lucida Console&quot; style=&quot;font-size: 18px;&quot;&gt;Validar&lt;/font&gt;&lt;/b&gt;" style="ellipse;whiteSpace=wrap;html=1;fillColor=#00FFFF;strokeColor=#000000;shadow=1;" vertex="1" parent="GJwqGrtuuLVszDylOuH6-2">
          <mxGeometry x="730" y="280" width="180" height="70" as="geometry" />
        </mxCell>
        <mxCell id="GJwqGrtuuLVszDylOuH6-35" style="rounded=0;orthogonalLoop=1;jettySize=auto;html=1;entryX=0.911;entryY=0.847;entryDx=0;entryDy=0;entryPerimeter=0;dashed=1;" edge="1" parent="GJwqGrtuuLVszDylOuH6-2" source="GJwqGrtuuLVszDylOuH6-17" target="GJwqGrtuuLVszDylOuH6-8">
          <mxGeometry relative="1" as="geometry" />
        </mxCell>
        <mxCell id="GJwqGrtuuLVszDylOuH6-17" value="&lt;b&gt;&lt;font face=&quot;Lucida Console&quot; style=&quot;font-size: 18px;&quot;&gt;Visualizar relatórios&lt;/font&gt;&lt;/b&gt;" style="ellipse;whiteSpace=wrap;html=1;fillColor=#00FFFF;strokeColor=#000000;shadow=1;" vertex="1" parent="GJwqGrtuuLVszDylOuH6-2">
          <mxGeometry x="500" y="670" width="200" height="90" as="geometry" />
        </mxCell>
        <mxCell id="GJwqGrtuuLVszDylOuH6-30" style="rounded=0;orthogonalLoop=1;jettySize=auto;html=1;dashed=1;" edge="1" parent="GJwqGrtuuLVszDylOuH6-2" source="GJwqGrtuuLVszDylOuH6-16" target="GJwqGrtuuLVszDylOuH6-12">
          <mxGeometry relative="1" as="geometry" />
        </mxCell>
        <mxCell id="GJwqGrtuuLVszDylOuH6-16" value="&lt;b&gt;&lt;font face=&quot;Lucida Console&quot; style=&quot;font-size: 18px;&quot;&gt;Fornecer CEP&lt;/font&gt;&lt;/b&gt;" style="ellipse;whiteSpace=wrap;html=1;fillColor=#00FFFF;strokeColor=#000000;shadow=1;" vertex="1" parent="GJwqGrtuuLVszDylOuH6-2">
          <mxGeometry x="650" y="140" width="190" height="90" as="geometry" />
        </mxCell>
        <mxCell id="GJwqGrtuuLVszDylOuH6-38" value="&lt;font data-font-src=&quot;https://fonts.googleapis.com/css?family=Arial&quot; face=&quot;Arial&quot; style=&quot;font-size: 14px;&quot;&gt;&amp;lt;&amp;lt;Include&amp;gt;&amp;gt;&lt;/font&gt;" style="text;html=1;strokeColor=none;fillColor=none;align=center;verticalAlign=middle;whiteSpace=wrap;rounded=0;" vertex="1" parent="GJwqGrtuuLVszDylOuH6-2">
          <mxGeometry x="190" y="300" width="60" height="30" as="geometry" />
        </mxCell>
        <mxCell id="GJwqGrtuuLVszDylOuH6-69" value="&lt;font data-font-src=&quot;https://fonts.googleapis.com/css?family=Arial&quot; face=&quot;Arial&quot; style=&quot;font-size: 14px;&quot;&gt;&amp;lt;&amp;lt;Include&amp;gt;&amp;gt;&lt;/font&gt;" style="text;html=1;strokeColor=none;fillColor=none;align=center;verticalAlign=middle;whiteSpace=wrap;rounded=0;" vertex="1" parent="GJwqGrtuuLVszDylOuH6-2">
          <mxGeometry x="535" y="170" width="60" height="30" as="geometry" />
        </mxCell>
        <mxCell id="GJwqGrtuuLVszDylOuH6-70" value="&lt;font data-font-src=&quot;https://fonts.googleapis.com/css?family=Arial&quot; face=&quot;Arial&quot; style=&quot;font-size: 14px;&quot;&gt;&amp;lt;&amp;lt;Include&amp;gt;&amp;gt;&lt;/font&gt;" style="text;html=1;strokeColor=none;fillColor=none;align=center;verticalAlign=middle;whiteSpace=wrap;rounded=0;" vertex="1" parent="GJwqGrtuuLVszDylOuH6-2">
          <mxGeometry x="410" y="210" width="60" height="30" as="geometry" />
        </mxCell>
        <mxCell id="GJwqGrtuuLVszDylOuH6-71" value="&lt;font data-font-src=&quot;https://fonts.googleapis.com/css?family=Arial&quot; face=&quot;Arial&quot; style=&quot;font-size: 14px;&quot;&gt;&amp;lt;&amp;lt;Include&amp;gt;&amp;gt;&lt;/font&gt;" style="text;html=1;strokeColor=none;fillColor=none;align=center;verticalAlign=middle;whiteSpace=wrap;rounded=0;" vertex="1" parent="GJwqGrtuuLVszDylOuH6-2">
          <mxGeometry x="410" y="270" width="60" height="30" as="geometry" />
        </mxCell>
        <mxCell id="GJwqGrtuuLVszDylOuH6-72" value="&lt;font data-font-src=&quot;https://fonts.googleapis.com/css?family=Arial&quot; face=&quot;Arial&quot; style=&quot;font-size: 14px;&quot;&gt;&amp;lt;&amp;lt;Include&amp;gt;&amp;gt;&lt;/font&gt;" style="text;html=1;strokeColor=none;fillColor=none;align=center;verticalAlign=middle;whiteSpace=wrap;rounded=0;" vertex="1" parent="GJwqGrtuuLVszDylOuH6-2">
          <mxGeometry x="650" y="250" width="60" height="30" as="geometry" />
        </mxCell>
        <mxCell id="GJwqGrtuuLVszDylOuH6-73" value="&lt;font data-font-src=&quot;https://fonts.googleapis.com/css?family=Arial&quot; face=&quot;Arial&quot; style=&quot;font-size: 14px;&quot;&gt;&amp;lt;&amp;lt;Include&amp;gt;&amp;gt;&lt;/font&gt;" style="text;html=1;strokeColor=none;fillColor=none;align=center;verticalAlign=middle;whiteSpace=wrap;rounded=0;" vertex="1" parent="GJwqGrtuuLVszDylOuH6-2">
          <mxGeometry x="780" y="230" width="60" height="30" as="geometry" />
        </mxCell>
        <mxCell id="GJwqGrtuuLVszDylOuH6-74" value="&lt;font data-font-src=&quot;https://fonts.googleapis.com/css?family=Arial&quot; face=&quot;Arial&quot; style=&quot;font-size: 14px;&quot;&gt;&amp;lt;&amp;lt;Include&amp;gt;&amp;gt;&lt;/font&gt;" style="text;html=1;strokeColor=none;fillColor=none;align=center;verticalAlign=middle;whiteSpace=wrap;rounded=0;" vertex="1" parent="GJwqGrtuuLVszDylOuH6-2">
          <mxGeometry x="660" y="310" width="60" height="30" as="geometry" />
        </mxCell>
        <mxCell id="GJwqGrtuuLVszDylOuH6-75" value="&lt;font data-font-src=&quot;https://fonts.googleapis.com/css?family=Arial&quot; face=&quot;Arial&quot; style=&quot;font-size: 14px;&quot;&gt;&amp;lt;&amp;lt;Include&amp;gt;&amp;gt;&lt;/font&gt;" style="text;html=1;strokeColor=none;fillColor=none;align=center;verticalAlign=middle;whiteSpace=wrap;rounded=0;" vertex="1" parent="GJwqGrtuuLVszDylOuH6-2">
          <mxGeometry x="475" y="415" width="60" height="30" as="geometry" />
        </mxCell>
        <mxCell id="GJwqGrtuuLVszDylOuH6-76" value="&lt;font data-font-src=&quot;https://fonts.googleapis.com/css?family=Arial&quot; face=&quot;Arial&quot; style=&quot;font-size: 14px;&quot;&gt;&amp;lt;&amp;lt;Include&amp;gt;&amp;gt;&lt;/font&gt;" style="text;html=1;strokeColor=none;fillColor=none;align=center;verticalAlign=middle;whiteSpace=wrap;rounded=0;" vertex="1" parent="GJwqGrtuuLVszDylOuH6-2">
          <mxGeometry x="750" y="90" width="60" height="30" as="geometry" />
        </mxCell>
        <mxCell id="GJwqGrtuuLVszDylOuH6-77" value="&lt;font data-font-src=&quot;https://fonts.googleapis.com/css?family=Arial&quot; face=&quot;Arial&quot; style=&quot;font-size: 14px;&quot;&gt;&amp;lt;&amp;lt;Include&amp;gt;&amp;gt;&lt;/font&gt;" style="text;html=1;strokeColor=none;fillColor=none;align=center;verticalAlign=middle;whiteSpace=wrap;rounded=0;" vertex="1" parent="GJwqGrtuuLVszDylOuH6-2">
          <mxGeometry x="415" y="513.5" width="60" height="30" as="geometry" />
        </mxCell>
        <mxCell id="GJwqGrtuuLVszDylOuH6-79" value="&lt;font data-font-src=&quot;https://fonts.googleapis.com/css?family=Arial&quot; face=&quot;Arial&quot; style=&quot;font-size: 14px;&quot;&gt;&amp;lt;&amp;lt;Include&amp;gt;&amp;gt;&lt;/font&gt;" style="text;html=1;strokeColor=none;fillColor=none;align=center;verticalAlign=middle;whiteSpace=wrap;rounded=0;" vertex="1" parent="GJwqGrtuuLVszDylOuH6-2">
          <mxGeometry x="650" y="420" width="60" height="30" as="geometry" />
        </mxCell>
        <mxCell id="GJwqGrtuuLVszDylOuH6-80" value="&lt;font data-font-src=&quot;https://fonts.googleapis.com/css?family=Arial&quot; face=&quot;Arial&quot; style=&quot;font-size: 14px;&quot;&gt;&amp;lt;&amp;lt;Extend&amp;gt;&amp;gt;&lt;/font&gt;" style="text;html=1;strokeColor=none;fillColor=none;align=center;verticalAlign=middle;whiteSpace=wrap;rounded=0;" vertex="1" parent="GJwqGrtuuLVszDylOuH6-2">
          <mxGeometry x="225" y="543.5" width="60" height="30" as="geometry" />
        </mxCell>
        <mxCell id="GJwqGrtuuLVszDylOuH6-119" value="&lt;font data-font-src=&quot;https://fonts.googleapis.com/css?family=Arial&quot; face=&quot;Arial&quot; style=&quot;font-size: 14px;&quot;&gt;&amp;lt;&amp;lt;Extend&amp;gt;&amp;gt;&lt;/font&gt;" style="text;html=1;strokeColor=none;fillColor=none;align=center;verticalAlign=middle;whiteSpace=wrap;rounded=0;" vertex="1" parent="GJwqGrtuuLVszDylOuH6-2">
          <mxGeometry x="710" y="483.5" width="60" height="30" as="geometry" />
        </mxCell>
        <mxCell id="GJwqGrtuuLVszDylOuH6-120" value="&lt;font data-font-src=&quot;https://fonts.googleapis.com/css?family=Arial&quot; face=&quot;Arial&quot; style=&quot;font-size: 14px;&quot;&gt;&amp;lt;&amp;lt;Extend&amp;gt;&amp;gt;&lt;/font&gt;" style="text;html=1;strokeColor=none;fillColor=none;align=center;verticalAlign=middle;whiteSpace=wrap;rounded=0;" vertex="1" parent="GJwqGrtuuLVszDylOuH6-2">
          <mxGeometry x="320" y="140" width="60" height="30" as="geometry" />
        </mxCell>
        <mxCell id="GJwqGrtuuLVszDylOuH6-20" style="rounded=0;orthogonalLoop=1;jettySize=auto;html=1;entryX=0;entryY=0.5;entryDx=0;entryDy=0;endArrow=none;endFill=0;endSize=9;startSize=9;" edge="1" parent="1" source="GJwqGrtuuLVszDylOuH6-3" target="GJwqGrtuuLVszDylOuH6-5">
          <mxGeometry relative="1" as="geometry" />
        </mxCell>
        <mxCell id="GJwqGrtuuLVszDylOuH6-3" value="&lt;font style=&quot;font-size: 18px;&quot; data-font-src=&quot;https://fonts.googleapis.com/css?family=Arial&quot; face=&quot;Arial&quot;&gt;Candidato&lt;/font&gt;" style="shape=umlActor;verticalLabelPosition=bottom;verticalAlign=top;html=1;outlineConnect=0;" vertex="1" parent="1">
          <mxGeometry x="-740" y="-2060" width="90" height="180" as="geometry" />
        </mxCell>
        <mxCell id="GJwqGrtuuLVszDylOuH6-34" style="rounded=0;orthogonalLoop=1;jettySize=auto;html=1;entryX=0.807;entryY=0.103;entryDx=0;entryDy=0;entryPerimeter=0;endArrow=none;endFill=0;" edge="1" parent="1" source="GJwqGrtuuLVszDylOuH6-4" target="GJwqGrtuuLVszDylOuH6-17">
          <mxGeometry relative="1" as="geometry" />
        </mxCell>
        <mxCell id="GJwqGrtuuLVszDylOuH6-4" value="&lt;font style=&quot;font-size: 18px;&quot; data-font-src=&quot;https://fonts.googleapis.com/css?family=Arial&quot; face=&quot;Arial&quot;&gt;Coordenador&lt;/font&gt;" style="shape=umlActor;verticalLabelPosition=bottom;verticalAlign=top;html=1;outlineConnect=0;" vertex="1" parent="1">
          <mxGeometry x="430" y="-1870" width="90" height="180" as="geometry" />
        </mxCell>
      </root>
    </mxGraphModel>
  </diagram>
</mxfile>
